<mxfile host="app.diagrams.net" modified="2023-03-28T00:39:28.757Z" agent="Mozilla/5.0 (Windows NT 10.0; Win64; x64) AppleWebKit/537.36 (KHTML, like Gecko) Chrome/110.0.0.0 Safari/537.36 OPR/96.0.0.0" version="21.1.1" etag="U9a3WW_NvG-UPGIOVHfa" type="github">
  <diagram name="PÃ¡gina-1" id="tlyOI_dI2TxrZboqt-Fm">
    <mxGraphModel>
      <root>
        <mxCell id="0" />
        <mxCell id="1" parent="0" />
      </root>
    </mxGraphModel>
  </diagram>
</mxfile>
